<?xml version="1.0" encoding="UTF-8" standalone="no"?>

<svg
	xmlns="http://www.w3.org/2000/svg"
	viewBox="0 0 210 297"
	version="1.1">
  <g id="lozenge">
     <path
			fill="none"
			stroke="none"
			d="M 100 5 L 195 100 L 100 195 L 5 100 Z"
			data-tinctured="true"/>
    <path
			fill="none"
			stroke="black"
			d="M 100 5 L 195 100 L 100 195 L 5 100 Z"
			data-tinctured="false"/>
  </g>
  <g id="roundel">
     <path
			fill="none"
			stroke="none"
			d="M 200 100 C 200 155.22847498307934 155.22847498307934 200 100 200 C 44.77152501692066 200 6.7635375109817775e-15 155.22847498307934 0 100 C -6.7635375109817775e-15 44.77152501692066 44.77152501692067 1.0145306266472666e-14 100 0 C 155.22847498307934 3.3817687554908888e-15 200 44.77152501692067 200 100 Z"
			data-tinctured="true"/>
    <path
			fill="none"
			stroke="black"
			d="M 200 100 C 200 155.22847498307934 155.22847498307934 200 100 200 C 44.77152501692066 200 6.7635375109817775e-15 155.22847498307934 0 100 C -6.7635375109817775e-15 44.77152501692066 44.77152501692067 1.0145306266472666e-14 100 0 C 155.22847498307934 3.3817687554908888e-15 200 44.77152501692067 200 100 Z"
			data-tinctured="false"/>
  </g>
  <g id="billet">
     <path
			fill="none"
			stroke="none"
			d="M 0 0 L 100 0 L 100 200 L 0 200 Z"
			data-tinctured="true"/>
    <path
			fill="none"
			stroke="black"
			d="M 0 0 L 100 0 L 100 200 L 0 200 Z"
			data-tinctured="false"/>
  </g>
	<g id="mullet">
		<path
			fill="none"
			stroke="none"
			d="M 149.93821,153.74353 L 104.68878,119.74656 59.247422,153.48655 77.597621,99.946151 31.466824,67.155082 88.057296,68.062265 104.98825,14.056271 121.61289,68.157344 178.2076,67.570873 131.89171,100.09999 Z"
			data-tinctured="true"/>
		<path
			fill="none"
			stroke="black"
			d="M 149.93821,153.74353 L 104.68878,119.74656 59.247422,153.48655 77.597621,99.946151 31.466824,67.155082 88.057296,68.062265 104.98825,14.056271 121.61289,68.157344 178.2076,67.570873 131.89171,100.09999 Z"
			data-tinctured="false"/>
	</g>
  <g id="mullet of six points">
		<path
			fill="none"
			stroke="none"
			d="M 70.179383,97.682484 57.462947,119.26576 45.283228,97.375123 20.233343,97.154005 33.101332,75.66074 20.767884,53.856344 45.815592,54.253718 58.532029,32.67044 70.711747,54.561078 95.761633,54.782196 82.893642,76.275461 95.227092,98.079858 Z"
			data-tinctured="true"/>
		<path
			fill="none"
			stroke="black"
			d="M 70.179383,97.682484 57.462947,119.26576 45.283228,97.375123 20.233343,97.154005 33.101332,75.66074 20.767884,53.856344 45.815592,54.253718 58.532029,32.67044 70.711747,54.561078 95.761633,54.782196 82.893642,76.275461 95.227092,98.079858 Z"
			data-tinctured="false"/>
	</g>
  <g id="phrygian cap">
		<path
			fill="none"
			stroke="none"
			d="M 143.44196,114.4375 L 42.144344,114.4375 C 42.144344,114.4375 38.27009,105.64955 42.144344,101.7753 46.0186,97.901039 58.775298,75.883928 74.839284,70.781248 90.903273,65.67857 87.312499,54.150296 76.918155,51.693452 66.523808,49.236606 44.223214,48.291665 54.050593,39.031248 63.877975,29.770832 68.41369,30.715772 74.083332,29.959821 79.752975,29.203869 106.02232,32.227678 114.52678,39.598213 123.03125,46.968748 137.39434,59.441963 142.68601,81.364581 147.97768,103.2872 143.44196,114.4375 143.44196,114.4375 Z"
			data-tinctured="true"/>
		<path
			fill="none"
			stroke="black"
			d="M 143.44196,114.4375 L 42.144344,114.4375 C 42.144344,114.4375 38.27009,105.64955 42.144344,101.7753 46.0186,97.901039 58.775298,75.883928 74.839284,70.781248 90.903273,65.67857 87.312499,54.150296 76.918155,51.693452 66.523808,49.236606 44.223214,48.291665 54.050593,39.031248 63.877975,29.770832 68.41369,30.715772 74.083332,29.959821 79.752975,29.203869 106.02232,32.227678 114.52678,39.598213 123.03125,46.968748 137.39434,59.441963 142.68601,81.364581 147.97768,103.2872 143.44196,114.4375 143.44196,114.4375 Z"
			data-tinctured="false"/>
	</g>
	<g id="fleur-de-lis">
		<g
			fill="none"
			stroke="none"
			data-tinctured="true">
			<path
				d="M 89.197015,95.247453 C 92.409815,76.537631 112.25355,84.66412 112.25355,84.66412 112.25355,84.66412 116.22231,85.798047 117.54522,89.955786 118.86814,94.113523 113.38748,99.594179 113.38748,99.594179 113.38748,99.594179 130.20742,90.144773 121.70297,78.994477 113.1985,67.844179 97.701475,71.62394 97.701475,71.62394 97.701475,71.62394 88.063085,74.836738 87.496115,81.640311 86.929155,88.44388 80.503554,89.955786 80.503554,89.955786 80.503554,89.955786 91.086895,72.190905 87.874095,51.969179 84.661294,31.747453 71.621114,20.408167 71.621114,20.408167 C 71.621114,20.408167 58.580934,31.747453 55.368133,51.96918 52.155337,72.190906 62.738673,89.955787 62.738673,89.955787 62.738673,89.955787 56.313074,88.443881 55.746114,81.640311 55.179144,74.836739 45.540754,71.62394 45.540754,71.62394 45.540754,71.62394 30.043728,67.84418 21.539264,78.994478 13.034801,90.144774 29.854738,99.59418 29.854738,99.59418 29.854738,99.59418 24.374086,94.113524 25.697003,89.955787 27.01992,85.798048 30.988669,84.664121 30.988669,84.664121 30.988669,84.664121 50.83242,76.537631 54.045214,95.247454"
			/>
			<rect
				y="95.160713"
				x="37.722027"
				height="11.150297"
				width="68.602676"
			/>
		</g>
		<g
			fill="none"
			stroke="black"
			data-tinctured="false">
			<path
				d="M 89.197015,95.247453 C 92.409815,76.537631 112.25355,84.66412 112.25355,84.66412 112.25355,84.66412 116.22231,85.798047 117.54522,89.955786 118.86814,94.113523 113.38748,99.594179 113.38748,99.594179 113.38748,99.594179 130.20742,90.144773 121.70297,78.994477 113.1985,67.844179 97.701475,71.62394 97.701475,71.62394 97.701475,71.62394 88.063085,74.836738 87.496115,81.640311 86.929155,88.44388 80.503554,89.955786 80.503554,89.955786 80.503554,89.955786 91.086895,72.190905 87.874095,51.969179 84.661294,31.747453 71.621114,20.408167 71.621114,20.408167 C 71.621114,20.408167 58.580934,31.747453 55.368133,51.96918 52.155337,72.190906 62.738673,89.955787 62.738673,89.955787 62.738673,89.955787 56.313074,88.443881 55.746114,81.640311 55.179144,74.836739 45.540754,71.62394 45.540754,71.62394 45.540754,71.62394 30.043728,67.84418 21.539264,78.994478 13.034801,90.144774 29.854738,99.59418 29.854738,99.59418 29.854738,99.59418 24.374086,94.113524 25.697003,89.955787 27.01992,85.798048 30.988669,84.664121 30.988669,84.664121 30.988669,84.664121 50.83242,76.537631 54.045214,95.247454"
			/>
			<rect
				y="95.160713"
				x="37.722027"
				height="11.150297"
				width="68.602676"
			/>
		</g>
	</g>
	<g id="key">
		<g
			fill="none"
			stroke="none"
			data-tinctured="true">
		<path
			d="M 76.729168 117.08333 C 65.578872 117.08333 66.901789 106.31101 66.901789 106.31101 L 61.043157 106.31101 C 61.043157 117.46131 50.270834 116.13839 50.270834 116.13839 L 50.270834 121.99702 C 61.42113 121.99702 60.098213 132.76935 60.098213 132.76935 L 65.956845 132.76935 C 65.956845 121.61905 76.729168 122.94197 76.729168 122.94197 L 76.729168 117.08333 M 67.997914 119.54018 C 67.99791290698279 121.62768409751453 66.13643062876884 123.31994 63.840176 123.31994 C 61.543921371231164 123.31994 59.682438093017204 121.62768409751453 59.682437 119.54018 C 59.68243201941439 117.4526719982346 61.54391707654982 115.76041 63.840176 115.76041 C 66.13643492345018 115.76041 67.9979189805856 117.4526719982346 67.997914 119.54018 Z"
		   />
		<rect
			width="14.964762"
			height="4.1577382"
			x="56.395596"
			y="102.15327" />
		<rect
			width="4.9136906"
			height="43.845234"
			x="61.610119"
			y="58.308037" />
		<path
			d="M 61.5433,61.73078 H 51.148956 V 66.644471 H 54.928716 V 64.565603 H 58.141515 V 69.101318 H 51.181382 V 72.314113 H 58.141515 V 77.60578 L 54.796067,77.572371 V 75.060174 L 51.288248,75.079761 V 80.440602 H 61.5433 Z"
		   />
		</g>
		<g
			fill="none"
			stroke="black"
			data-tinctured="false">
		<path
			d="M 76.729168 117.08333 C 65.578872 117.08333 66.901789 106.31101 66.901789 106.31101 L 61.043157 106.31101 C 61.043157 117.46131 50.270834 116.13839 50.270834 116.13839 L 50.270834 121.99702 C 61.42113 121.99702 60.098213 132.76935 60.098213 132.76935 L 65.956845 132.76935 C 65.956845 121.61905 76.729168 122.94197 76.729168 122.94197 L 76.729168 117.08333 M 67.997914 119.54018 C 67.99791290698279 121.62768409751453 66.13643062876884 123.31994 63.840176 123.31994 C 61.543921371231164 123.31994 59.682438093017204 121.62768409751453 59.682437 119.54018 C 59.68243201941439 117.4526719982346 61.54391707654982 115.76041 63.840176 115.76041 C 66.13643492345018 115.76041 67.9979189805856 117.4526719982346 67.997914 119.54018 Z"
		   />
		<rect
			width="14.964762"
			height="4.1577382"
			x="56.395596"
			y="102.15327" />
		<rect
			width="4.9136906"
			height="43.845234"
			x="61.610119"
			y="58.308037" />
		<path
			d="M 61.5433,61.73078 H 51.148956 V 66.644471 H 54.928716 V 64.565603 H 58.141515 V 69.101318 H 51.181382 V 72.314113 H 58.141515 V 77.60578 L 54.796067,77.572371 V 75.060174 L 51.288248,75.079761 V 80.440602 H 61.5433 Z"
		   />
		</g>
	</g>
</svg>
