<?xml version="1.0" encoding="UTF-8" standalone="no"?>

<svg version="1.1" baseProfile="full" width="100" height="100" xmlns="http://www.w3.org/2000/svg" id="escutcheon">
	<rect width="100%" height="100%" fill="white" />
	<path
		d="m 54.75943,25.778305 c 0,3.449998 -2.8,6.249998 -6.249998,6.249998 -3.449999,0 -6.249997,-2.8 -6.249997,-6.249998 0,-3.449999 2.799998,-6.249997 6.249997,-6.249997 3.449998,0 6.249998,2.799998 6.249998,6.249997 z m -9.000001,11 c 0,3.449998 -2.8,6.249998 -6.249998,6.249998 -3.449999,0 -6.249997,-2.8 -6.249997,-6.249998 0,-3.449999 2.799998,-6.249997 6.249997,-6.249997 3.449998,0 6.249998,2.799998 6.249998,6.249997 z m 18.000001,0 c 0,3.449998 -2.8,6.249998 -6.249998,6.249998 -3.449999,0 -6.249997,-2.8 -6.249997,-6.249998 0,-3.449999 2.799998,-6.249997 6.249997,-6.249997 3.449998,0 6.249998,2.799998 6.249998,6.249997 z m -17.078699,-3.313499 2.951989,0.203586 c 0.101793,19.23883 14.759949,49.674863 14.759949,49.674863 l -9.212244,-8.805073 c -2.544818,2.95199 -7.074596,8.805073 -7.074596,8.805073 0,0 -3.257368,-5.90398 -5.598601,-8.85597 l -10.484653,8.754177 c 0,0 14.45457,-30.130655 14.658156,-49.776656 z"
		id="ermineSpot"
		/>
</svg>