<?xml version="1.0" encoding="UTF-8" standalone="no"?>

<svg version="1.1" baseProfile="full" width="200" height="200" viewBox="0 0 100 100" xmlns="http://www.w3.org/2000/svg">
	<rect width="100%" height="100%" fill="white" />
	<path d="M 56.551808,24.342523 C 56.551808,27.792521 53.751808,30.592521 50.30181,30.592521 C 46.851811,30.592521 44.051813,27.792521 44.051813,24.342524 C 44.051813,20.892525 46.851811,18.092527 50.30181,18.092527 C 53.751808,18.092527 56.551808,20.892524 56.551808,24.342524 Z M 47.551807,35.342524 C 47.551807,38.792522 44.751807,41.592522 41.301809,41.592522 C 37.85181,41.592522 35.051812,38.792522 35.051812,35.342524 C 35.051812,31.892525 37.85181,29.092527 41.301809,29.092527 C 44.751807,29.092527 47.551807,31.892525 47.551807,35.342524 Z M 65.551808,35.342524 C 65.551808,38.792522 62.751808,41.592522 59.30181,41.592522 C 55.851811,41.592522 53.051813,38.792522 53.051813,35.342524 C 53.051813,31.892525 55.851811,29.092527 59.30181,29.092527 C 62.751808,29.092527 65.551808,31.892525 65.551808,35.342524 Z M 48.473109,32.029025 M 51.425098,32.232611 C 51.526891,51.471441 66.185047,81.907474 66.185047,81.907474 L 56.972803,73.102401 C 54.427985,76.054391 49.898207,81.907474 49.898207,81.907474 C 49.898207,81.907474 46.640839,76.003493 44.299606,73.051504 L 33.814953,81.805681 C 33.814953,81.805681 48.269523,51.675025 48.473109,32.029024 Z" fill="black" />
	<path d="M 6.551808,-25.657477 C 6.551808,-22.207479 3.751808,-19.407479 0.30181,-19.407479 C -3.148189,-19.407479 -5.948187,-22.207479 -5.948187,-25.657476 C -5.948187,-29.107475 -3.148189,-31.907473 0.30181,-31.907473 C 3.751808,-31.907473 6.551808,-29.107476 6.551808,-25.657476 Z M -2.448193,-14.657477 C -2.448193,-11.207478 -5.248193,-8.407479 -8.698191,-8.407479 C -12.14819,-8.407479 -14.948188,-11.207478 -14.948188,-14.657477 C -14.948188,-18.107475 -12.14819,-20.907473 -8.698191,-20.907473 C -5.248193,-20.907473 -2.448193,-18.107475 -2.448193,-14.657477 Z M 15.551808,-14.657477 C 15.551808,-11.207478 12.751808,-8.407479 9.30181,-8.407479 C 5.851811,-8.407479 3.051813,-11.207478 3.051813,-14.657477 C 3.051813,-18.107475 5.851811,-20.907473 9.30181,-20.907473 C 12.751808,-20.907473 15.551808,-18.107475 15.551808,-14.657477 Z M -1.526891,-17.970975 M 1.425098,-17.767389 C 1.526891,1.471441 16.185047,31.907473 16.185047,31.907473 L 6.972803,23.102401 C 4.427985,26.05439 -0.101793,31.907473 -0.101793,31.907473 C -0.101793,31.907473 -3.359161,26.003493 -5.700394,23.051503 L -16.185047,31.80568 C -16.185047,31.80568 -1.730477,1.675025 -1.526891,-17.970976 Z" fill="black" />
	<path d="M 106.551808,-25.657477 C 106.551808,-22.207479 103.751808,-19.407479 100.30181,-19.407479 C 96.851811,-19.407479 94.051813,-22.207479 94.051813,-25.657476 C 94.051813,-29.107475 96.851811,-31.907473 100.30181,-31.907473 C 103.751808,-31.907473 106.551808,-29.107476 106.551808,-25.657476 Z M 97.551807,-14.657477 C 97.551807,-11.207478 94.751807,-8.407479 91.301809,-8.407479 C 87.85181,-8.407479 85.051812,-11.207478 85.051812,-14.657477 C 85.051812,-18.107475 87.85181,-20.907473 91.301809,-20.907473 C 94.751807,-20.907473 97.551807,-18.107475 97.551807,-14.657477 Z M 115.551808,-14.657477 C 115.551808,-11.207478 112.751808,-8.407479 109.30181,-8.407479 C 105.851811,-8.407479 103.051813,-11.207478 103.051813,-14.657477 C 103.051813,-18.107475 105.851811,-20.907473 109.30181,-20.907473 C 112.751808,-20.907473 115.551808,-18.107475 115.551808,-14.657477 Z M 98.473109,-17.970975 M 101.425098,-17.767389 C 101.526891,1.471441 116.185047,31.907473 116.185047,31.907473 L 106.972803,23.102401 C 104.427985,26.05439 99.898207,31.907473 99.898207,31.907473 C 99.898207,31.907473 96.640839,26.003493 94.299606,23.051503 L 83.814953,31.80568 C 83.814953,31.80568 98.269523,1.675025 98.473109,-17.970976 Z" fill="black" />
	<path d="M 6.551808,74.342524 C 6.551808,77.792521 3.751808,80.592522 0.30181,80.592522 C -3.148189,80.592522 -5.948187,77.792521 -5.948187,74.342524 C -5.948187,70.892525 -3.148189,68.092526 0.30181,68.092526 C 3.751808,68.092526 6.551808,70.892525 6.551808,74.342524 Z M -2.448193,85.342524 C -2.448193,88.792521 -5.248193,91.592522 -8.698191,91.592522 C -12.14819,91.592522 -14.948188,88.792521 -14.948188,85.342524 C -14.948188,81.892525 -12.14819,79.092526 -8.698191,79.092526 C -5.248193,79.092526 -2.448193,81.892525 -2.448193,85.342524 Z M 15.551808,85.342524 C 15.551808,88.792521 12.751808,91.592522 9.30181,91.592522 C 5.851811,91.592522 3.051813,88.792521 3.051813,85.342524 C 3.051813,81.892525 5.851811,79.092526 9.30181,79.092526 C 12.751808,79.092526 15.551808,81.892525 15.551808,85.342524 Z M -1.526891,82.029024 M 1.425098,82.232611 C 1.526891,101.471441 16.185047,131.907473 16.185047,131.907473 L 6.972803,123.102401 C 4.427985,126.054391 -0.101793,131.907473 -0.101793,131.907473 C -0.101793,131.907473 -3.359161,126.003493 -5.700394,123.051504 L -16.185047,131.805681 C -16.185047,131.805681 -1.730477,101.675025 -1.526891,82.029024 Z" fill="black" />
	<path d="M 106.551808,74.342524 C 106.551808,77.792521 103.751808,80.592522 100.30181,80.592522 C 96.851811,80.592522 94.051813,77.792521 94.051813,74.342524 C 94.051813,70.892525 96.851811,68.092526 100.30181,68.092526 C 103.751808,68.092526 106.551808,70.892525 106.551808,74.342524 Z M 97.551807,85.342524 C 97.551807,88.792521 94.751807,91.592522 91.301809,91.592522 C 87.85181,91.592522 85.051812,88.792521 85.051812,85.342524 C 85.051812,81.892525 87.85181,79.092526 91.301809,79.092526 C 94.751807,79.092526 97.551807,81.892525 97.551807,85.342524 Z M 115.551808,85.342524 C 115.551808,88.792521 112.751808,91.592522 109.30181,91.592522 C 105.851811,91.592522 103.051813,88.792521 103.051813,85.342524 C 103.051813,81.892525 105.851811,79.092526 109.30181,79.092526 C 112.751808,79.092526 115.551808,81.892525 115.551808,85.342524 Z M 98.473109,82.029024 M 101.425098,82.232611 C 101.526891,101.471441 116.185047,131.907473 116.185047,131.907473 L 106.972803,123.102401 C 104.427985,126.054391 99.898207,131.907473 99.898207,131.907473 C 99.898207,131.907473 96.640839,126.003493 94.299606,123.051504 L 83.814953,131.805681 C 83.814953,131.805681 98.269523,101.675025 98.473109,82.029024 Z" fill="black" />
</svg>