<?xml version="1.0" encoding="UTF-8" standalone="no"?>

<svg version="1.1" baseProfile="full" width="200" height="200" viewBox="0 0 100 100" xmlns="http://www.w3.org/2000/svg">
	<rect width="100%" height="100%" fill="white" />
	<path d="M 53.275904,37.171262 C 53.275904,38.896261 51.875904,40.296261 50.150905,40.296261 C 48.425906,40.296261 47.025907,38.896261 47.025907,37.171262 C 47.025907,35.446262 48.425906,34.046263 50.150905,34.046263 C 51.875904,34.046263 53.275904,35.446262 53.275904,37.171262 Z M 48.775904,42.671262 C 48.775904,44.396261 47.375904,45.796261 45.650904,45.796261 C 43.925905,45.796261 42.525906,44.396261 42.525906,42.671262 C 42.525906,40.946262 43.925905,39.546263 45.650904,39.546263 C 47.375904,39.546263 48.775904,40.946262 48.775904,42.671262 Z M 57.775904,42.671262 C 57.775904,44.396261 56.375904,45.796261 54.650905,45.796261 C 52.925906,45.796261 51.525907,44.396261 51.525907,42.671262 C 51.525907,40.946262 52.925906,39.546263 54.650905,39.546263 C 56.375904,39.546263 57.775904,40.946262 57.775904,42.671262 Z M 49.236555,41.014512 M 50.712549,41.116305 C 50.763446,50.73572 58.092524,65.953737 58.092524,65.953737 L 53.486402,61.5512 C 52.213993,63.027195 49.949104,65.953737 49.949104,65.953737 C 49.949104,65.953737 48.32042,63.001747 47.149803,61.525752 L 41.907477,65.90284 C 41.907477,65.90284 49.134761,50.837513 49.236555,41.014512 Z" fill="black" />
	<path d="M 3.275904,-12.828738 C 3.275904,-11.103739 1.875904,-9.703739 0.150905,-9.703739 C -1.574095,-9.703739 -2.974094,-11.103739 -2.974094,-12.828738 C -2.974094,-14.553738 -1.574095,-15.953737 0.150905,-15.953737 C 1.875904,-15.953737 3.275904,-14.553738 3.275904,-12.828738 Z M -1.224097,-7.328738 C -1.224097,-5.603739 -2.624097,-4.203739 -4.349096,-4.203739 C -6.074095,-4.203739 -7.474094,-5.603739 -7.474094,-7.328738 C -7.474094,-9.053738 -6.074095,-10.453737 -4.349096,-10.453737 C -2.624097,-10.453737 -1.224097,-9.053738 -1.224097,-7.328738 Z M 7.775904,-7.328738 C 7.775904,-5.603739 6.375904,-4.203739 4.650905,-4.203739 C 2.925905,-4.203739 1.525907,-5.603739 1.525907,-7.328738 C 1.525907,-9.053738 2.925905,-10.453737 4.650905,-10.453737 C 6.375904,-10.453737 7.775904,-9.053738 7.775904,-7.328738 Z M -0.763446,-8.985488 M 0.712549,-8.883695 C 0.763446,0.73572 8.092523,15.953737 8.092523,15.953737 L 3.486401,11.5512 C 2.213993,13.027195 -0.050896,15.953737 -0.050896,15.953737 C -0.050896,15.953737 -1.679581,13.001747 -2.850197,11.525752 L -8.092523,15.90284 C -8.092523,15.90284 -0.865239,0.837513 -0.763446,-8.985488 Z" fill="black" />
	<path d="M 103.275904,-12.828738 C 103.275904,-11.103739 101.875904,-9.703739 100.150905,-9.703739 C 98.425906,-9.703739 97.025906,-11.103739 97.025906,-12.828738 C 97.025906,-14.553738 98.425906,-15.953737 100.150905,-15.953737 C 101.875904,-15.953737 103.275904,-14.553738 103.275904,-12.828738 Z M 98.775904,-7.328738 C 98.775904,-5.603739 97.375904,-4.203739 95.650905,-4.203739 C 93.925905,-4.203739 92.525906,-5.603739 92.525906,-7.328738 C 92.525906,-9.053738 93.925905,-10.453737 95.650905,-10.453737 C 97.375904,-10.453737 98.775904,-9.053738 98.775904,-7.328738 Z M 107.775904,-7.328738 C 107.775904,-5.603739 106.375904,-4.203739 104.650905,-4.203739 C 102.925906,-4.203739 101.525907,-5.603739 101.525907,-7.328738 C 101.525907,-9.053738 102.925906,-10.453737 104.650905,-10.453737 C 106.375904,-10.453737 107.775904,-9.053738 107.775904,-7.328738 Z M 99.236555,-8.985488 M 100.712549,-8.883695 C 100.763446,0.73572 108.092524,15.953737 108.092524,15.953737 L 103.486402,11.5512 C 102.213993,13.027195 99.949104,15.953737 99.949104,15.953737 C 99.949104,15.953737 98.32042,13.001747 97.149803,11.525752 L 91.907477,15.90284 C 91.907477,15.90284 99.134762,0.837513 99.236555,-8.985488 Z" fill="black" />
	<path d="M 3.275904,87.171262 C 3.275904,88.896261 1.875904,90.296261 0.150905,90.296261 C -1.574095,90.296261 -2.974094,88.896261 -2.974094,87.171262 C -2.974094,85.446262 -1.574095,84.046263 0.150905,84.046263 C 1.875904,84.046263 3.275904,85.446262 3.275904,87.171262 Z M -1.224097,92.671262 C -1.224097,94.396261 -2.624097,95.796261 -4.349096,95.796261 C -6.074095,95.796261 -7.474094,94.396261 -7.474094,92.671262 C -7.474094,90.946262 -6.074095,89.546263 -4.349096,89.546263 C -2.624097,89.546263 -1.224097,90.946262 -1.224097,92.671262 Z M 7.775904,92.671262 C 7.775904,94.396261 6.375904,95.796261 4.650905,95.796261 C 2.925905,95.796261 1.525907,94.396261 1.525907,92.671262 C 1.525907,90.946262 2.925905,89.546263 4.650905,89.546263 C 6.375904,89.546263 7.775904,90.946262 7.775904,92.671262 Z M -0.763446,91.014512 M 0.712549,91.116305 C 0.763446,100.73572 8.092523,115.953737 8.092523,115.953737 L 3.486401,111.5512 C 2.213993,113.027195 -0.050896,115.953737 -0.050896,115.953737 C -0.050896,115.953737 -1.679581,113.001747 -2.850197,111.525752 L -8.092523,115.90284 C -8.092523,115.90284 -0.865239,100.837513 -0.763446,91.014512 Z" fill="black" />
	<path d="M 103.275904,87.171262 C 103.275904,88.896261 101.875904,90.296261 100.150905,90.296261 C 98.425906,90.296261 97.025906,88.896261 97.025906,87.171262 C 97.025906,85.446262 98.425906,84.046263 100.150905,84.046263 C 101.875904,84.046263 103.275904,85.446262 103.275904,87.171262 Z M 98.775904,92.671262 C 98.775904,94.396261 97.375904,95.796261 95.650905,95.796261 C 93.925905,95.796261 92.525906,94.396261 92.525906,92.671262 C 92.525906,90.946262 93.925905,89.546263 95.650905,89.546263 C 97.375904,89.546263 98.775904,90.946262 98.775904,92.671262 Z M 107.775904,92.671262 C 107.775904,94.396261 106.375904,95.796261 104.650905,95.796261 C 102.925906,95.796261 101.525907,94.396261 101.525907,92.671262 C 101.525907,90.946262 102.925906,89.546263 104.650905,89.546263 C 106.375904,89.546263 107.775904,90.946262 107.775904,92.671262 Z M 99.236555,91.014512 M 100.712549,91.116305 C 100.763446,100.73572 108.092524,115.953737 108.092524,115.953737 L 103.486402,111.5512 C 102.213993,113.027195 99.949104,115.953737 99.949104,115.953737 C 99.949104,115.953737 98.32042,113.001747 97.149803,111.525752 L 91.907477,115.90284 C 91.907477,115.90284 99.134762,100.837513 99.236555,91.014512 Z" fill="black" />
</svg>
