<?xml version="1.0" encoding="UTF-8" standalone="no"?>

<svg version="1.1" baseProfile="full" width="200" height="200" viewBox="0 0 100 100" xmlns="http://www.w3.org/2000/svg" id="escutcheon">
	<defs>
		<pattern id="dotty" width="5" height="5" patternUnits="userSpaceOnUse">
			<rect width="100%" height="100%" fill="white" />
			<circle cx="2.5" cy="2.5" r="0.75" fill="black" />
			<circle cx="0" cy="5" r="0.75" fill="black" />
			<circle cx="5" cy="0" r="0.75" fill="black" />
			<circle cx="0" cy="0" r="0.75" fill="black" />
			<circle cx="5" cy="5" r="0.75" fill="black" />
		</pattern>
	</defs>
	<rect width="100%" height="100%" fill="white"></rect>
	<path d="M 56.551807999999994,24.342523499999995 C 56.551807999999994,27.792521499999996 53.751808,30.592521499999997 50.301809999999996,30.592521499999997 C 46.851811,30.592521499999997 44.051812999999996,27.792521499999996 44.051812999999996,24.3425235 C 44.051812999999996,20.8925245 46.851811,18.092526499999998 50.301809999999996,18.092526499999998 C 53.751808,18.092526499999998 56.551807999999994,20.892524499999997 56.551807999999994,24.3425235 Z M 47.551807,35.3425235 C 47.551807,38.7925215 44.751807,41.5925215 41.301809,41.5925215 C 37.85181,41.5925215 35.051812,38.7925215 35.051812,35.3425235 C 35.051812,31.8925245 37.85181,29.092526499999998 41.301809,29.092526499999998 C 44.751807,29.092526499999998 47.551807,31.8925245 47.551807,35.3425235 Z M 65.551808,35.3425235 C 65.551808,38.7925215 62.751808000000004,41.5925215 59.30181,41.5925215 C 55.851811000000005,41.5925215 53.051813,38.7925215 53.051813,35.3425235 C 53.051813,31.8925245 55.851811000000005,29.092526499999998 59.30181,29.092526499999998 C 62.751808000000004,29.092526499999998 65.551808,31.8925245 65.551808,35.3425235 Z M 48.473109,32.0290245 M 51.425098,32.2326105 C 51.526891,51.4714405 66.185047,81.9074735 66.185047,81.9074735 L 56.972803000000006,73.1024005 C 54.42798500000001,76.0543905 49.898207000000006,81.9074735 49.898207000000006,81.9074735 C 49.898207000000006,81.9074735 46.64083900000001,76.00349349999999 44.299606000000004,73.0515035 L 33.814953,81.8056805 C 33.814953,81.8056805 48.269523,51.67502549999999 48.473109,32.02902449999999 Z" fill="black" id="ermineSpot" />
	<path d="M 6.551807999999994,-25.657476500000005 C 6.551807999999994,-22.207478500000004 3.751807999999997,-19.407478500000003 0.30180999999999614,-19.407478500000003 C -3.148189000000002,-19.407478500000003 -5.948187000000004,-22.207478500000004 -5.948187000000004,-25.6574765 C -5.948187000000004,-29.1074755 -3.148189000000002,-31.907473500000002 0.30180999999999614,-31.907473500000002 C 3.751807999999997,-31.907473500000002 6.551807999999994,-29.107475500000003 6.551807999999994,-25.6574765 Z M -2.4481930000000034,-14.657476500000001 C -2.4481930000000034,-11.2074785 -5.2481930000000006,-8.407478500000003 -8.698191000000001,-8.407478500000003 C -12.14819,-8.407478500000003 -14.948188000000002,-11.2074785 -14.948188000000002,-14.657476500000001 C -14.948188000000002,-18.1074755 -12.14819,-20.907473500000002 -8.698191000000001,-20.907473500000002 C -5.2481930000000006,-20.907473500000002 -2.4481930000000034,-18.1074755 -2.4481930000000034,-14.657476500000001 Z M 15.551807999999994,-14.657476500000001 C 15.551807999999994,-11.2074785 12.751808000000004,-8.407478500000003 9.301810000000003,-8.407478500000003 C 5.851811000000005,-8.407478500000003 3.0518130000000028,-11.2074785 3.0518130000000028,-14.657476500000001 C 3.0518130000000028,-18.1074755 5.851811000000005,-20.907473500000002 9.301810000000003,-20.907473500000002 C 12.751808000000004,-20.907473500000002 15.551807999999994,-18.1074755 15.551807999999994,-14.657476500000001 Z M -1.526890999999999,-17.9709755 M 1.4250979999999984,-17.7673895 C 1.526890999999999,1.4714405 16.185046999999997,31.907473499999995 16.185046999999997,31.907473499999995 L 6.972803000000006,23.1024005 C 4.427985000000007,26.054390499999997 -0.10179299999999358,31.907473499999995 -0.10179299999999358,31.907473499999995 C -0.10179299999999358,31.907473499999995 -3.359160999999993,26.00349349999999 -5.700393999999996,23.051503499999995 L -16.185046999999997,31.805680499999994 C -16.185046999999997,31.805680499999994 -1.7304770000000005,1.6750254999999896 -1.526890999999999,-17.97097550000001 Z" />
	<path d="M 106.551808,-25.657476500000005 C 106.551808,-22.207478500000004 103.751808,-19.407478500000003 100.30180999999999,-19.407478500000003 C 96.851811,-19.407478500000003 94.051813,-22.207478500000004 94.051813,-25.6574765 C 94.051813,-29.1074755 96.851811,-31.907473500000002 100.30180999999999,-31.907473500000002 C 103.751808,-31.907473500000002 106.551808,-29.107475500000003 106.551808,-25.6574765 Z M 97.551807,-14.657476500000001 C 97.551807,-11.2074785 94.751807,-8.407478500000003 91.30180899999999,-8.407478500000003 C 87.85181,-8.407478500000003 85.051812,-11.2074785 85.051812,-14.657476500000001 C 85.051812,-18.1074755 87.85181,-20.907473500000002 91.30180899999999,-20.907473500000002 C 94.751807,-20.907473500000002 97.551807,-18.1074755 97.551807,-14.657476500000001 Z M 115.551808,-14.657476500000001 C 115.551808,-11.2074785 112.75180800000001,-8.407478500000003 109.30181,-8.407478500000003 C 105.851811,-8.407478500000003 103.05181300000001,-11.2074785 103.05181300000001,-14.657476500000001 C 103.05181300000001,-18.1074755 105.851811,-20.907473500000002 109.30181,-20.907473500000002 C 112.75180800000001,-20.907473500000002 115.551808,-18.1074755 115.551808,-14.657476500000001 Z M 98.473109,-17.9709755 M 101.42509799999999,-17.7673895 C 101.526891,1.4714405 116.185047,31.907473499999995 116.185047,31.907473499999995 L 106.972803,23.1024005 C 104.427985,26.054390499999997 99.89820700000001,31.907473499999995 99.89820700000001,31.907473499999995 C 99.89820700000001,31.907473499999995 96.640839,26.00349349999999 94.29960600000001,23.051503499999995 L 83.814953,31.805680499999994 C 83.814953,31.805680499999994 98.26952299999999,1.6750254999999896 98.473109,-17.97097550000001 Z" />
	<path d="M 6.551807999999994,74.3425235 C 6.551807999999994,77.79252149999999 3.751807999999997,80.5925215 0.30180999999999614,80.5925215 C -3.148189000000002,80.5925215 -5.948187000000004,77.79252149999999 -5.948187000000004,74.3425235 C -5.948187000000004,70.89252450000001 -3.148189000000002,68.09252649999999 0.30180999999999614,68.09252649999999 C 3.751807999999997,68.09252649999999 6.551807999999994,70.8925245 6.551807999999994,74.3425235 Z M -2.4481930000000034,85.3425235 C -2.4481930000000034,88.79252149999999 -5.2481930000000006,91.5925215 -8.698191000000001,91.5925215 C -12.14819,91.5925215 -14.948188000000002,88.79252149999999 -14.948188000000002,85.3425235 C -14.948188000000002,81.89252450000001 -12.14819,79.09252649999999 -8.698191000000001,79.09252649999999 C -5.2481930000000006,79.09252649999999 -2.4481930000000034,81.89252450000001 -2.4481930000000034,85.3425235 Z M 15.551807999999994,85.3425235 C 15.551807999999994,88.79252149999999 12.751808000000004,91.5925215 9.301810000000003,91.5925215 C 5.851811000000005,91.5925215 3.0518130000000028,88.79252149999999 3.0518130000000028,85.3425235 C 3.0518130000000028,81.89252450000001 5.851811000000005,79.09252649999999 9.301810000000003,79.09252649999999 C 12.751808000000004,79.09252649999999 15.551807999999994,81.89252450000001 15.551807999999994,85.3425235 Z M -1.526890999999999,82.02902449999999 M 1.4250979999999984,82.23261049999999 C 1.526890999999999,101.4714405 16.185046999999997,131.90747349999998 16.185046999999997,131.90747349999998 L 6.972803000000006,123.1024005 C 4.427985000000007,126.0543905 -0.10179299999999358,131.90747349999998 -0.10179299999999358,131.90747349999998 C -0.10179299999999358,131.90747349999998 -3.359160999999993,126.00349349999999 -5.700393999999996,123.0515035 L -16.185046999999997,131.8056805 C -16.185046999999997,131.8056805 -1.7304770000000005,101.67502549999999 -1.526890999999999,82.02902449999999 Z" />
	<path d="M 106.551808,74.3425235 C 106.551808,77.79252149999999 103.751808,80.5925215 100.30180999999999,80.5925215 C 96.851811,80.5925215 94.051813,77.79252149999999 94.051813,74.3425235 C 94.051813,70.89252450000001 96.851811,68.09252649999999 100.30180999999999,68.09252649999999 C 103.751808,68.09252649999999 106.551808,70.8925245 106.551808,74.3425235 Z M 97.551807,85.3425235 C 97.551807,88.79252149999999 94.751807,91.5925215 91.30180899999999,91.5925215 C 87.85181,91.5925215 85.051812,88.79252149999999 85.051812,85.3425235 C 85.051812,81.89252450000001 87.85181,79.09252649999999 91.30180899999999,79.09252649999999 C 94.751807,79.09252649999999 97.551807,81.89252450000001 97.551807,85.3425235 Z M 115.551808,85.3425235 C 115.551808,88.79252149999999 112.75180800000001,91.5925215 109.30181,91.5925215 C 105.851811,91.5925215 103.05181300000001,88.79252149999999 103.05181300000001,85.3425235 C 103.05181300000001,81.89252450000001 105.851811,79.09252649999999 109.30181,79.09252649999999 C 112.75180800000001,79.09252649999999 115.551808,81.89252450000001 115.551808,85.3425235 Z M 98.473109,82.02902449999999 M 101.42509799999999,82.23261049999999 C 101.526891,101.4714405 116.185047,131.90747349999998 116.185047,131.90747349999998 L 106.972803,123.1024005 C 104.427985,126.0543905 99.89820700000001,131.90747349999998 99.89820700000001,131.90747349999998 C 99.89820700000001,131.90747349999998 96.640839,126.00349349999999 94.29960600000001,123.0515035 L 83.814953,131.8056805 C 83.814953,131.8056805 98.26952299999999,101.67502549999999 98.473109,82.02902449999999 Z" />
</svg>
